Patient4_TMGait_0pt4_01_left_25_GRF.mot
version=1
nRows=26
nColumns=19
inDegrees=no
endheader
time	F1x	F1y	F1z	M1x	M1y	M1z	F2x	F2y	F2z	M2x	M2y	M2z	EC1x	EC1y	EC1z	EC2x	EC2y	EC2z
30.23	-2.8659	-8.0058	-2.6762	0.7383	2.0839	-12.0627	-40.1868	773.2296	-72.1442	304.1483	92.1632	845.9971	-0.0592	0.0182	-0.0073	-0.0462	0.0165	0.9585
30.2428	-1.9765	-4.5072	-1.7433	0.21558	1.305	-7.2414	-35.1519	757.7461	-69.2362	297.7712	87.4396	824.5942	-0.0592	0.0182	-0.0073	-0.0462	0.0165	0.9585
30.2556	-1.2504	-1.5594	-0.97925	-0.22536	0.65232	-3.1341	-29.8945	740.7546	-66.1201	290.8844	82.241	801.4358	-0.0592	0.0182	-0.0073	-0.0462	0.0165	0.9585
30.2684	-0.7319	0.68329	-0.40949	-0.56506	0.15118	0.030698	-24.6706	724.208	-63.0466	284.2636	76.9249	778.7761	-0.0592	0.0182	-0.0073	-0.0462	0.0165	0.9585
30.2811	-0.39025	2.2432	-0.029653	-0.80811	-0.19269	2.2579	-19.6448	710.2016	-60.2593	278.7185	71.8311	758.8825	-0.0592	0.0182	-0.0073	-0.0462	0.0165	0.9585
30.2939	-0.20341	3.2213	0.20203	-0.96674	-0.41255	3.6773	-14.9025	700.5214	-57.9539	274.9317	67.2294	743.6049	-0.0592	0.0182	-0.0073	-0.0462	0.0165	0.9585
30.3067	-0.12404	3.7278	0.31991	-1.0527	-0.53293	4.4337	-10.4737	696.3716	-56.2659	273.3566	63.3129	734.1434	-0.0592	0.0182	-0.0073	-0.0462	0.0165	0.9585
30.3195	-0.13438	3.8687	0.37407	-1.0742	-0.6022	4.6883	-6.3984	698.1991	-55.2453	274.1553	60.1841	730.9073	-0.0592	0.0182	-0.0073	-0.0462	0.0165	0.9585
30.3323	-0.20563	3.7126	0.39069	-1.0314	-0.64617	4.5504	-2.6769	705.6596	-54.8651	277.1854	57.8457	733.4843	-0.0592	0.0182	-0.0073	-0.0462	0.0165	0.9585
30.3451	-0.32985	3.2723	0.3967	-0.90993	-0.69107	4.0524	0.71557	717.7129	-55.025	282.0307	56.2051	740.7739	-0.0592	0.0182	-0.0073	-0.0462	0.0165	0.9585
30.3579	-0.48877	2.5393	0.39698	-0.69145	-0.74054	3.186	3.8151	732.6944	-55.5964	288.0321	55.1222	751.0626	-0.0592	0.0182	-0.0073	-0.0462	0.0165	0.9585
30.3706	-0.65837	1.4637	0.405	-0.35104	-0.79787	1.8898	6.6266	748.5622	-56.4344	294.3785	54.4415	762.3007	-0.0592	0.0182	-0.0073	-0.0462	0.0165	0.9585
30.3834	-0.81323	-0.0025123	0.41192	0.12979	-0.84394	0.1189	9.1737	763.2037	-57.4047	300.2297	54.0091	772.3861	-0.0592	0.0182	-0.0073	-0.0462	0.0165	0.9585
30.3962	-0.90697	-1.8518	0.41253	0.75067	-0.85615	-2.1047	11.4645	774.7809	-58.3678	304.8526	53.6732	779.5193	-0.0592	0.0182	-0.0073	-0.0462	0.0165	0.9585
30.409	-0.86858	-3.9759	0.38271	1.4729	-0.78876	-4.6317	13.5476	781.9654	-59.2074	307.7132	53.2979	782.4184	-0.0592	0.0182	-0.0073	-0.0462	0.0165	0.9585
30.4218	-0.59395	-6.0925	0.30191	2.1959	-0.58721	-7.1309	15.5054	784.1055	-59.8615	308.5385	52.7919	780.4727	-0.0592	0.0182	-0.0073	-0.0462	0.0165	0.9585
30.4346	0.043911	-7.6537	0.1439	2.73	-0.17797	-8.9745	17.4145	781.2571	-60.3331	307.332	52.1278	773.7735	-0.0592	0.0182	-0.0073	-0.0462	0.0165	0.9585
30.4474	1.1842	-7.786	-0.10831	2.7721	0.50819	-9.1486	19.3403	774.1158	-60.6823	304.3546	51.3404	763.0542	-0.0592	0.0182	-0.0073	-0.0462	0.0165	0.9585
30.4601	2.9452	-5.2458	-0.46188	1.8894	1.5207	-6.2066	21.2955	763.8289	-60.985	300.0552	50.5015	749.5094	-0.0592	0.0182	-0.0073	-0.0462	0.0165	0.9585
30.4729	5.3786	1.5995	-0.90647	-0.48596	2.866	1.7462	23.2625	751.6537	-61.2781	294.9436	49.6642	734.423	-0.0592	0.0182	-0.0073	-0.0462	0.0165	0.9585
30.4857	8.4133	14.6392	-1.4006	-5.0129	4.4721	16.9086	25.1976	738.6219	-61.5236	289.4474	48.8214	718.8531	-0.0592	0.0182	-0.0073	-0.0462	0.0165	0.9585
30.4985	11.7574	35.7773	-1.8658	-12.3543	6.1465	41.4974	27.066	725.1886	-61.6416	283.764	47.924	703.2844	-0.0592	0.0182	-0.0073	-0.0462	0.0165	0.9585
30.5113	14.786	66.4385	-2.1563	-23.004	7.5061	77.1621	28.7549	711.0007	-61.5059	277.7727	46.9008	687.4309	-0.0592	0.0182	-0.0073	-0.0462	0.0165	0.9585
30.5241	16.4425	106.7656	-2.0584	-37.0108	7.9325	124.0694	30.0947	694.9551	-60.9491	271.0594	45.6638	670.2886	-0.0592	0.0182	-0.0073	-0.0462	0.0165	0.9585
30.5369	15.2525	154.6457	-1.2514	-53.6359	6.5532	179.7794	30.902	675.5113	-59.764	263.0426	44.0971	650.4208	-0.0592	0.0182	-0.0073	-0.0462	0.0165	0.9585
30.5496	10.4457	205.4783	0.75009	-71.2506	2.5373	238.9668	31.04	651.1934	-57.7669	253.1722	42.0881	626.413	-0.0592	0.0182	-0.0073	-0.0462	0.0165	0.9585
